<mxfile host="app.diagrams.net" modified="2022-03-08T08:27:02.990Z" agent="5.0 (Windows NT 10.0; Win64; x64) AppleWebKit/537.36 (KHTML, like Gecko) Chrome/98.0.4758.102 Safari/537.36" etag="UX2lOl2Qdt7nJX42gWCh" version="16.6.5" type="github">
  <diagram id="TAuO6dvW1PLmUKk2na1p" name="Page-1">
    <mxGraphModel dx="2249" dy="794" grid="1" gridSize="10" guides="1" tooltips="1" connect="1" arrows="1" fold="1" page="1" pageScale="1" pageWidth="827" pageHeight="1169" math="0" shadow="0">
      <root>
        <mxCell id="0" />
        <mxCell id="1" parent="0" />
        <mxCell id="BXjA3cAHKJvuVpyevDsp-6" value="" style="whiteSpace=wrap;html=1;aspect=fixed;" vertex="1" parent="1">
          <mxGeometry x="-80" y="320" width="360" height="360" as="geometry" />
        </mxCell>
        <mxCell id="BXjA3cAHKJvuVpyevDsp-1" value="Web浏览器" style="rounded=0;whiteSpace=wrap;html=1;" vertex="1" parent="1">
          <mxGeometry x="130" y="200" width="120" height="60" as="geometry" />
        </mxCell>
        <mxCell id="BXjA3cAHKJvuVpyevDsp-2" value="小程序" style="rounded=0;whiteSpace=wrap;html=1;" vertex="1" parent="1">
          <mxGeometry x="370" y="200" width="120" height="60" as="geometry" />
        </mxCell>
        <mxCell id="BXjA3cAHKJvuVpyevDsp-4" value="GPS模块" style="whiteSpace=wrap;html=1;aspect=fixed;" vertex="1" parent="1">
          <mxGeometry x="-50" y="390" width="120" height="120" as="geometry" />
        </mxCell>
        <mxCell id="BXjA3cAHKJvuVpyevDsp-5" value="检查表模块" style="whiteSpace=wrap;html=1;aspect=fixed;" vertex="1" parent="1">
          <mxGeometry x="130" y="390" width="120" height="120" as="geometry" />
        </mxCell>
        <mxCell id="BXjA3cAHKJvuVpyevDsp-7" value="&lt;font style=&quot;font-size: 18px&quot;&gt;非业务模块&lt;/font&gt;" style="text;html=1;strokeColor=none;fillColor=none;align=center;verticalAlign=middle;whiteSpace=wrap;rounded=0;" vertex="1" parent="1">
          <mxGeometry x="-70" y="340" width="120" height="30" as="geometry" />
        </mxCell>
        <mxCell id="BXjA3cAHKJvuVpyevDsp-9" value="" style="whiteSpace=wrap;html=1;aspect=fixed;" vertex="1" parent="1">
          <mxGeometry x="390" y="320" width="360" height="360" as="geometry" />
        </mxCell>
        <mxCell id="BXjA3cAHKJvuVpyevDsp-10" value="GPS模块" style="whiteSpace=wrap;html=1;aspect=fixed;" vertex="1" parent="1">
          <mxGeometry x="430" y="450" width="120" height="120" as="geometry" />
        </mxCell>
        <mxCell id="BXjA3cAHKJvuVpyevDsp-11" value="检查表模块" style="whiteSpace=wrap;html=1;aspect=fixed;" vertex="1" parent="1">
          <mxGeometry x="600" y="450" width="120" height="120" as="geometry" />
        </mxCell>
        <mxCell id="BXjA3cAHKJvuVpyevDsp-12" value="&lt;font style=&quot;font-size: 18px&quot;&gt;业务模块&lt;/font&gt;" style="text;html=1;strokeColor=none;fillColor=none;align=center;verticalAlign=middle;whiteSpace=wrap;rounded=0;" vertex="1" parent="1">
          <mxGeometry x="400" y="340" width="120" height="30" as="geometry" />
        </mxCell>
        <mxCell id="BXjA3cAHKJvuVpyevDsp-13" value="字典模块" style="whiteSpace=wrap;html=1;aspect=fixed;" vertex="1" parent="1">
          <mxGeometry x="-50" y="540" width="120" height="120" as="geometry" />
        </mxCell>
        <mxCell id="BXjA3cAHKJvuVpyevDsp-14" value="检查表模块" style="whiteSpace=wrap;html=1;aspect=fixed;" vertex="1" parent="1">
          <mxGeometry x="130" y="540" width="120" height="120" as="geometry" />
        </mxCell>
      </root>
    </mxGraphModel>
  </diagram>
</mxfile>
